<svg xmlns="http://www.w3.org/2000/svg" width="720" height="150" viewBox="0 0 720 150" font-family="-apple-system, Segoe UI, sans-serif">
  <rect width="720" height="150" fill="#1a1a1d"/>
  <defs>
    <marker id="arr" markerWidth="9" markerHeight="9" refX="6" refY="3" orient="auto">
      <path d="M0,0 L6,3 L0,6 Z" fill="#ff6a2b"/>
    </marker>
  </defs>

  <!-- 1 -->
  <rect x="14" y="45" width="150" height="60" rx="8" fill="#232328" stroke="#34343c"/>
  <text x="89" y="72" fill="#e7e7ea" font-size="13" font-weight="700" text-anchor="middle">🎞️ Vídeo de 1h</text>
  <text x="89" y="90" fill="#8a8a96" font-size="10" text-anchor="middle">na timeline do Premiere</text>

  <line x1="166" y1="75" x2="196" y2="75" stroke="#ff6a2b" stroke-width="2" marker-end="url(#arr)"/>

  <!-- 2 -->
  <rect x="200" y="30" width="160" height="90" rx="8" fill="#232328" stroke="#34343c"/>
  <text x="280" y="52" fill="#e7e7ea" font-size="13" font-weight="700" text-anchor="middle">🧠 Análise</text>
  <text x="280" y="72" fill="#ffb48a" font-size="10" text-anchor="middle">🎧 Áudio → Gemini</text>
  <text x="280" y="87" fill="#8a8a96" font-size="9" text-anchor="middle">ou</text>
  <text x="280" y="102" fill="#9bd2ff" font-size="10" text-anchor="middle">📝 Whisper local + LLM</text>

  <line x1="362" y1="75" x2="392" y2="75" stroke="#ff6a2b" stroke-width="2" marker-end="url(#arr)"/>

  <!-- 3 -->
  <rect x="396" y="45" width="150" height="60" rx="8" fill="#232328" stroke="#34343c"/>
  <text x="471" y="72" fill="#e7e7ea" font-size="13" font-weight="700" text-anchor="middle">🗺️ Mapa</text>
  <text x="471" y="90" fill="#8a8a96" font-size="10" text-anchor="middle">6–9 clips curtos + score</text>

  <line x1="548" y1="75" x2="578" y2="75" stroke="#ff6a2b" stroke-width="2" marker-end="url(#arr)"/>

  <!-- 4 -->
  <rect x="582" y="45" width="124" height="60" rx="8" fill="#3a2517" stroke="#ff6a2b"/>
  <text x="644" y="72" fill="#ffb48a" font-size="13" font-weight="700" text-anchor="middle">✂️ Corte ~3min</text>
  <text x="644" y="90" fill="#cfcfd6" font-size="10" text-anchor="middle">nova sequência</text>

  <text x="360" y="142" fill="#6a6a76" font-size="10" text-anchor="middle">Tudo dentro do painel CEP — sem sair do Premiere</text>
</svg>
